<?xml version="1.0" encoding="UTF-8" standalone="no"?><svg version="1.1" viewBox="0 0 1024 1024" xml:space="preserve" xmlns:xlink="http://www.w3.org/1999/xlink" xmlns="http://www.w3.org/2000/svg" xmlns:svg="http://www.w3.org/2000/svg"><defs><linearGradient id="a"><stop offset="0" stop-color="#66ff80"/><stop offset=".5" stop-color="#33d94f"/><stop offset="1" stop-color="#00b41e"/></linearGradient><linearGradient xlink:href="#a" id="b" gradientUnits="userSpaceOnUse" gradientTransform="translate(195.525 283) scale(.44709472)" x1="707.84778" y1="-632.97546" x2="707.84778" y2="1657.3669"/></defs><path d="M1023.9999 703.6703c0 12.24394 0 24.46578-.0923 36.68749-.0607 10.3073-.1779 20.61447-.4453 30.89954-.2837 22.5344-2.2629 45.01565-5.9213 67.25295-3.8067 22.26183-10.9078 43.8113-21.08088 63.9583-20.61945 40.48081-53.52839 73.39129-94.0071 94.01169-20.13757 10.15963-41.67821 17.25773-63.91054 21.05973-22.26075 3.6732-44.74408 5.6545-67.27194 5.9217-10.29726.2661-20.59722.4218-30.89785.4669-12.2434.0714-24.46445.0714-36.68562.0714H320.3129c-12.22115 0-24.44231 0-36.68569-.0606-10.30054-.0405-20.60048-.1866-30.89786-.4453-22.54148-.2877-45.0292-2.2745-67.27197-5.944-22.23846-3.7846-43.78676-10.9085-63.91051-21.05986-40.474453-20.61649-73.382628-53.51855-94.007081-93.99013-10.169994-20.15946-17.275178-41.72376-21.0808488-63.98053C2.8006217 816.28975.82124261 793.81592.53759651 771.28886c-.26726224-10.3073-.40038136-20.61447-.44543709-30.9217C0 728.12315 0 715.9236 0 703.67966V320.33072c0-12.24407 0-24.48805.09215942-36.73201.04096-10.28505.17817485-20.59224.44543709-30.87719.2836461-22.52708 2.26333229-45.00092 5.92134369-67.23084 3.8065928-22.26176 10.9077838-43.81123 21.0808488-63.98046 20.619436-40.480777 53.52833-73.391427 94.007081-94.011821 20.13183-10.154396 41.66437-17.252253 63.8883-21.0596905C207.69585 2.7877383 230.17916.80650253 252.70702.51712013 263.01382.24985607 273.32052.11673607 283.60489.07168 295.84836 0 308.09175 0 320.29058 0h383.3742c12.24346 0 24.48687 0 36.70798.07168 10.30056.04096 20.60038.18636807 30.89785.44544013 22.52786.289792 45.01119 2.27061817 67.24964 5.92158837 22.26069 3.8068235 43.78692 10.9083665 63.93283 21.0596905 40.48882 20.614147 73.40659 53.525823 94.02934 94.011821 10.16138 20.15325 17.25908 41.71 21.05858 63.95824 3.6587 22.23729 5.638 44.7185 5.9214 67.25306.2674 10.30717.4002 20.61446.4453 30.89941.0923 12.24398.0923 24.46572.0923 36.68746Z" fill="url(#b)"/><path d="M301.08398 283c-6.56547 0-13.73447-.09687-20.82031.30078-8.43804.47354-16.92479 1.64794-26.44726 4.51953-4.44985 1.34189-8.78131 3.04188-12.9668 5.08008-7.53837 3.70747-14.42508 8.54491-20.33399 14.25-5.90887 5.70509-10.89241 12.26665-14.73242 19.54492-3.7892 7.25282-6.43374 15.00064-7.85156 23.00586-2.24428 13.16785-2.40625 11.41185-2.40625 46.40821v234.01171c0 14.33731.02725 20.37173.2207 25.8125.26108 7.34276 1.29709 17.65871 3.66407 26.12305 2.48334 8.88043 6.43176 17.92317 12.49414 26.17383 6.79972 9.25415 15.70965 16.85561 27.97265 22.88672 7.18875 3.50069 14.82869 5.69047 21.47657 7.06445 9.22906 1.90745 17.54788 2.24138 19.09375 2.32813 6.93388.38912 12.94837.29492 19.37304.29492h273.77344c6.42467 0 12.43917.09606 19.37305-.30078 1.54587-.08847 9.86469-.459 19.09375-2.4043 6.64788-1.40125 14.28781-3.67398 21.47656-7.24414 12.263-6.1508 21.39686-14.19528 27.97266-23.32227 6.06238-8.41439 10.0108-17.6367 12.49414-26.69336 2.36698-8.63231 3.40298-19.10137 3.66406-26.58984.19345-5.54874.2207-11.70435.2207-26.32617V394.02148c0-23.07114.143-29.80884-2.24219-44.55273-.30786-1.83131-1.90202-11.37059-7.10742-22.41992-2.73725-5.81027-6.88299-12.65144-12.8164-19.08594-5.75253-6.23835-15.93566-15.05564-33.38868-20.23242-9.50247-2.81855-16.97032-3.92584-25.39062-4.39063-7.07095-.39031-11.2817-.33984-17.39844-.33984H301.08398zm548.90235 43.05078c-1.91836.00177-3.71803.14501-5.34375.38477-4.84309.71425-8.51764 2.27879-10.0625 2.94531-6.28888 2.7133-12.91513 7.03412-19.84375 13.00586L717.5 426.19531v171.81446l97.23633 84.10937c6.91804 5.98399 13.55487 10.29256 19.84375 13.00586 1.54486.66652 5.21941 2.03184 10.0625 2.74609 6.50287.95902 15.79885.59509 24.27344-4.53906 2.37825-1.44081 4.68529-3.24421 6.85156-5.4668 2.07057-2.12441 3.65207-4.26156 4.77148-6.08007 3.84126-6.24025 6-13.92518 6-22.78516V365.50586c0-8.85998-2.15874-16.54491-6-22.78516-1.11941-1.81851-2.70091-3.95566-4.77148-6.08008-2.16627-2.22259-4.47331-4.02403-6.85156-5.46484-6.35595-3.85061-13.17463-5.1303-18.92969-5.125z" fill="#fff"/></svg>